[b]General[/b]
Complete name : IIFA 2012 FULL SEGMENT SHOW.avi
Format : AVI
Format/Info : Audio Video Interleave
Format profile : OpenDML
File size : 2.95 GiB
Duration : 2h 34mn
Overall bit rate : 2 731 Kbps
Writing application : Lavf52.93.0
Video
ID : 0
Format : MPEG-4 Visual
Format profile : Simple@L1
Format settings, BVOP : No
Format settings, QPel : No
Format settings, GMC : No warppoints
Format settings, Matrix : Default (H.263)
Codec ID : FMP4
Duration : 2h 34mn
Bit rate : 2 656 Kbps
Width : 720 pixels
Height : 480 pixels
Display aspect ratio : 3:2
Frame rate : 23.976 fps
Standard : NTSC
Color space : YUV
Chroma subsampling : 4:2:0
Bit depth : 8 bits
Scan type : Progressive
Compression mode : Lossy
Bits/(Pixel*Frame) : 0.321
Stream size : 2.87 GiB (97%)
Writing library : Lavc52.108.0
Audio
ID : 1
Format : MPEG Audio
Format version : Version 1
Format profile : Layer 2
Codec ID : 50
Duration : 2h 34mn
Bit rate mode : Constant
Bit rate : 64.0 Kbps
Channel(s) : 2 channels
Sampling rate : 44.1 KHz
Compression mode : Lossy
Stream size : 70.8 MiB (2%)
Alignment : Aligned on interleaves
Interleave, duration : 26 ms (0.63 video frame)